<?xml version="1.0" standalone="no"?>
<!DOCTYPE svg PUBLIC "-//W3C//DTD SVG 20010904//EN"
 "http://www.w3.org/TR/2001/REC-SVG-20010904/DTD/svg10.dtd">
<svg version="1.0" xmlns="http://www.w3.org/2000/svg"
 width="192.000000pt" height="192.000000pt" viewBox="0 0 192.000000 192.000000"
 preserveAspectRatio="xMidYMid meet">
<metadata>
Created by potrace 1.11, written by Peter Selinger 2001-2013
</metadata>
<g transform="translate(0.000000,192.000000) scale(0.100000,-0.100000)"
fill="#000000" stroke="none">
<path d="M0 960 l0 -960 960 0 960 0 0 960 0 960 -960 0 -960 0 0 -960z m888
359 c42 -12 42 -13 42 -60 l0 -48 -42 19 c-53 24 -147 26 -192 5 -39 -19 -72
-60 -91 -115 l-14 -40 114 0 115 0 0 -35 0 -35 -120 0 -120 0 0 -55 0 -55 120
0 120 0 0 -35 0 -35 -116 0 c-115 0 -115 0 -108 -22 21 -71 72 -123 130 -134
50 -9 135 1 173 21 l32 16 -3 -47 c-3 -45 -5 -48 -43 -61 -51 -18 -168 -19
-222 -3 -79 24 -147 104 -168 198 -6 30 -9 32 -51 32 -44 0 -44 0 -44 35 0 34
1 35 40 35 l40 0 0 55 0 55 -40 0 c-39 0 -40 1 -40 35 0 35 0 35 44 35 l43 0
23 61 c23 65 83 140 132 165 67 35 159 40 246 13z m317 7 c47 -20 63 -49 121
-220 40 -117 55 -152 70 -155 41 -7 44 -18 44 -167 0 -142 0 -144 -25 -160
-18 -12 -25 -25 -25 -48 0 -47 -15 -56 -97 -56 -79 0 -93 10 -93 64 0 25 -1
25 -97 28 l-98 3 -3 168 -2 167 135 0 c74 0 135 4 135 8 0 13 -77 237 -89 260
-10 19 -22 22 -94 24 l-82 3 -3 33 c-6 58 -1 62 88 62 47 0 95 -6 115 -14z"/>
<path d="M1235 858 c-76 -44 -49 -159 37 -158 37 1 59 14 76 47 19 35 14 63
-17 94 -31 30 -63 36 -96 17z"/>
</g>
</svg>
